<svg xmlns="http://www.w3.org/2000/svg" version="1.2" class="looka-1j8o68f" viewBox="0 0 83.33 78.67"><defs id="SvgjsDefs1431"/><g id="SvgjsG1432" featurekey="xG21Y3-0" transform="matrix(1.0364842257684566,0,0,1.0364842257684566,-10.15754561022455,-12.437810709221479)" fill="#99cc7d"><g xmlns="http://www.w3.org/2000/svg"><path d="M63.5,12c-2.7,0-5,1.7-5.9,4.1h-19c-1.2,0-2.2,1-2.2,2.2c0,1.2,1,2.2,2.2,2.2h19c0.9,2.4,3.2,4.1,5.9,4.1   c3.5,0,6.3-2.8,6.3-6.3S67,12,63.5,12z M63.5,22.6c-2.4,0-4.3-1.9-4.3-4.3s1.9-4.3,4.3-4.3c2.4,0,4.3,1.9,4.3,4.3   S65.9,22.6,63.5,22.6z"/><path d="M83.9,33.1c-2.7,0-5,1.7-5.9,4.1H18.3c-1.2,0-2.2,1-2.2,2.2c0,1.2,1,2.2,2.2,2.2H78c0.9,2.4,3.2,4.1,5.9,4.1   c3.5,0,6.3-2.8,6.3-6.3C90.2,35.9,87.4,33.1,83.9,33.1z M83.9,43.7c-2.4,0-4.3-1.9-4.3-4.3s1.9-4.3,4.3-4.3s4.3,1.9,4.3,4.3   S86.3,43.7,83.9,43.7z"/><path d="M72.8,26.7H33.9c-0.9-2.4-3.2-4.1-5.9-4.1c-3.5,0-6.3,2.8-6.3,6.3s2.8,6.3,6.3,6.3c2.7,0,5-1.7,5.9-4.1h38.9   c1.2,0,2.2-1,2.2-2.2C75,27.7,74.1,26.7,72.8,26.7z M28,33.2c-2.4,0-4.3-1.9-4.3-4.3s1.9-4.3,4.3-4.3s4.3,1.9,4.3,4.3   S30.4,33.2,28,33.2z"/><path d="M83.5,47.8H22c-0.9-2.4-3.2-4.1-5.9-4.1c-3.5,0-6.3,2.8-6.3,6.3c0,3.5,2.8,6.3,6.3,6.3c2.7,0,5-1.7,5.9-4.1h61.5   c1.2,0,2.2-1,2.2-2.2C85.7,48.8,84.7,47.8,83.5,47.8z M16.1,54.3c-2.4,0-4.3-1.9-4.3-4.3c0-2.4,1.9-4.3,4.3-4.3s4.3,1.9,4.3,4.3   C20.4,52.4,18.5,54.3,16.1,54.3z"/><path d="M72.8,68.9H32.6c-0.9-2.4-3.2-4.1-5.9-4.1c-3.5,0-6.3,2.8-6.3,6.3c0,3.5,2.8,6.3,6.3,6.3c2.7,0,5-1.7,5.9-4.1h40.2   c1.2,0,2.2-1,2.2-2.2C75,69.9,74.1,68.9,72.8,68.9z M26.7,75.4c-2.4,0-4.3-1.9-4.3-4.3c0-2.4,1.9-4.3,4.3-4.3s4.3,1.9,4.3,4.3   C31,73.5,29.1,75.4,26.7,75.4z"/><path d="M83.9,54.2c-2.7,0-5,1.7-5.9,4.1H18.3c-1.2,0-2.2,1-2.2,2.2c0,1.2,1,2.2,2.2,2.2H78c0.9,2.4,3.2,4.1,5.9,4.1   c3.5,0,6.3-2.8,6.3-6.3C90.2,57.1,87.4,54.2,83.9,54.2z M83.9,64.8c-2.4,0-4.3-1.9-4.3-4.3s1.9-4.3,4.3-4.3s4.3,1.9,4.3,4.3   S86.3,64.8,83.9,64.8z"/><path d="M62.4,75.3c-2.7,0-5,1.7-5.9,4.1H38.7c-1.2,0-2.2,1-2.2,2.2c0,1.2,1,2.2,2.2,2.2h17.9c0.9,2.4,3.2,4.1,5.9,4.1   c3.5,0,6.3-2.8,6.3-6.3S65.9,75.3,62.4,75.3z M62.4,85.9c-2.4,0-4.3-1.9-4.3-4.3s1.9-4.3,4.3-4.3c2.4,0,4.3,1.9,4.3,4.3   S64.8,85.9,62.4,85.9z"/></g></g></svg>